<svg width="416" height="382" viewBox="0 0 416 382" fill="none" xmlns="http://www.w3.org/2000/svg">
<path fill-rule="evenodd" clip-rule="evenodd" d="M416 208.368C416 217.258 412.603 226.148 405.843 232.92C392.288 246.498 370.38 246.498 356.825 232.92L208.004 83.8385L59.1834 232.92C45.629 246.498 23.7202 246.498 10.1658 232.92C-3.3886 219.342 -3.3886 197.394 10.1658 183.816L183.496 10.1836C197.05 -3.39452 218.959 -3.39452 232.513 10.1836L405.843 183.816C412.603 190.588 416 199.478 416 208.368ZM381.334 382.001H34.6746C15.6083 382.001 0.00866674 366.374 0.00866674 347.274C0.00866674 328.174 15.6083 312.548 34.6746 312.548H381.334C400.4 312.548 416 328.174 416 347.274C416 366.374 400.4 382.001 381.334 382.001Z" fill="black"/>
</svg>
